<svg width="412" height="377" viewBox="0 0 412 377" fill="none" xmlns="http://www.w3.org/2000/svg">
<path d="M-7.28226 263.709H97.3136C98.9227 263.709 98.9226 263.709 99.7272 263.709C106.164 262.905 142.37 260.491 139.956 303.938C137.543 351.409 136.738 499.452 139.956 523.589C143.175 545.313 157.657 328.88 160.876 287.042C160.876 283.824 164.898 281.41 168.117 282.215L199.496 292.674C199.496 292.674 224.438 299.111 213.173 332.903C205.128 367.5 171.335 525.199 171.335 525.199L238.116 320.03C239.725 316.007 244.552 313.593 248.575 316.007L263.058 324.857C263.058 324.857 285.586 334.512 267.081 370.719C248.575 406.925 197.886 525.199 170.531 666.001C161.68 697.379 152.025 696.575 124.669 686.92C97.3135 677.265 59.4981 667.61 36.1652 654.736C17.6598 648.3 4.7865 637.84 -7.28226 602.438C-18.5464 566.232 -79.6946 428.649 -66.0167 136.585C-66.0167 136.585 -67.6261 129.344 -53.1436 118.884C-38.6611 108.425 169.726 4.63342 169.726 4.63342C169.726 4.63342 200.3 -13.0674 191.45 20.7251C183.404 54.5176 156.853 174.4 156.853 174.4C156.853 174.4 149.611 221.871 88.4631 237.962C27.3148 253.25 -7.28226 263.709 -7.28226 263.709Z" fill="#98A2B3" fill-opacity="0.05"/>
<path d="M401.447 171.985L320.184 270.949C316.966 274.972 313.748 278.995 311.334 283.018C307.311 289.454 297.656 300.719 283.174 298.305C263.864 295.086 218.002 287.845 210.761 286.236C203.52 284.627 232.485 284.627 241.335 277.386C250.186 270.949 316.161 166.353 319.38 159.112C322.598 152.675 326.621 147.043 341.103 146.239C355.586 145.434 394.206 146.239 394.206 146.239C394.206 146.239 427.194 140.606 401.447 171.985Z" fill="#98A2B3" fill-opacity="0.05"/>
<path d="M308.116 98.7732L239.727 237.966C239.727 237.966 230.876 258.885 205.129 258.885C179.383 258.885 122.257 258.885 122.257 258.885C122.257 258.885 141.567 252.448 152.832 246.012C164.096 239.575 170.532 229.115 175.36 217.047C180.187 204.978 209.957 101.187 209.957 101.187C209.957 101.187 210.762 89.1181 226.049 85.0952C241.336 81.0722 298.461 73.0264 298.461 73.0264C298.461 73.0264 326.622 60.9578 308.116 98.7732Z" fill="#98A2B3" fill-opacity="0.05"/>
</svg>
