<svg width="22" height="20" viewBox="0 0 22 20" fill="none" xmlns="http://www.w3.org/2000/svg">
<path d="M16.7205 11.6678L16.1372 4.66782C16.0294 3.37396 15.9754 2.72703 15.6889 2.23738C15.4366 1.8062 15.0609 1.4605 14.6103 1.24487C14.0985 1 13.4493 1 12.151 1L6.17872 1C4.88038 1 4.23121 1 3.71946 1.24487C3.26881 1.4605 2.89311 1.8062 2.6408 2.23738C2.35427 2.72703 2.30036 3.37396 2.19254 4.66782L1.60921 11.6678C1.48389 13.1716 1.42124 13.9235 1.67543 14.5035C1.89876 15.0131 2.28572 15.4336 2.77501 15.6985C3.33192 16 4.08641 16 5.59539 16H12.7343M12.4982 5.16667C12.4982 6.05072 12.147 6.89857 11.5219 7.52369C10.8968 8.14881 10.0489 8.5 9.16486 8.5C8.2808 8.5 7.43296 8.14881 6.80784 7.52369C6.18271 6.89857 5.83152 6.05072 5.83152 5.16667" stroke="#EEF5FF" stroke-width="1.5" stroke-linecap="round" stroke-linejoin="round"/>
<rect x="15.1652" y="15.5" width="6" height="1.5" rx="0.75" fill="#EEF5FF"/>
<rect x="17.4152" y="19.5" width="6" height="1.5" rx="0.75" transform="rotate(-90 17.4152 19.5)" fill="#EEF5FF"/>
</svg>
