<svg width="26" height="26" viewBox="0 0 26 26" fill="none" xmlns="http://www.w3.org/2000/svg">
<path d="M8 1.75L18 24.25M1.75 19.25L13 13M7.75 24.25H18.25C20.3502 24.25 21.4003 24.25 22.2025 23.8413C22.9081 23.4817 23.4817 22.9081 23.8413 22.2025C24.25 21.4003 24.25 20.3502 24.25 18.25V7.75C24.25 5.6498 24.25 4.5997 23.8413 3.79754C23.4817 3.09193 22.9081 2.51825 22.2025 2.15873C21.4003 1.75 20.3502 1.75 18.25 1.75H7.75C5.6498 1.75 4.5997 1.75 3.79754 2.15873C3.09193 2.51825 2.51825 3.09193 2.15873 3.79754C1.75 4.5997 1.75 5.6498 1.75 7.75V18.25C1.75 20.3502 1.75 21.4003 2.15873 22.2025C2.51825 22.9081 3.09193 23.4817 3.79754 23.8413C4.5997 24.25 5.6498 24.25 7.75 24.25Z" stroke="#EEF5FF" stroke-width="2" stroke-linecap="round" stroke-linejoin="round"/>
</svg>
