<svg width="38" height="24" viewBox="0 0 38 24" fill="none" xmlns="http://www.w3.org/2000/svg">
<path fill-rule="evenodd" clip-rule="evenodd" d="M19.0352 20.499C17.0618 22.1624 14.5019 23.1666 11.7047 23.1666C5.46326 23.1666 0.403564 18.1671 0.403564 11.9999C0.403564 5.83274 5.46326 0.833252 11.7047 0.833252C14.5019 0.833252 17.0618 1.83742 19.0352 3.50082C21.0086 1.83742 23.5685 0.833252 26.3657 0.833252C32.6071 0.833252 37.6668 5.83274 37.6668 11.9999C37.6668 18.1671 32.6071 23.1666 26.3657 23.1666C23.5685 23.1666 21.0086 22.1624 19.0352 20.499Z" fill="#667085"/>
<path fill-rule="evenodd" clip-rule="evenodd" d="M19.0352 20.4991C21.4651 18.4509 23.0058 15.4033 23.0058 12C23.0058 8.5968 21.4651 5.54915 19.0352 3.50098C16.6053 5.54915 15.0646 8.5968 15.0646 12C15.0646 15.4033 16.6053 18.4509 19.0352 20.4991Z" fill="#98A2B3"/>
</svg>
