<svg width="63" height="22" viewBox="0 0 63 22" fill="none" xmlns="http://www.w3.org/2000/svg">
<path fill-rule="evenodd" clip-rule="evenodd" d="M0.658752 16.9118C0.700261 16.6888 0.738275 16.4728 0.77554 16.261L0.775542 16.261L0.77555 16.2609C0.833144 15.9336 0.888949 15.6165 0.9531 15.2994C1.2248 13.8648 1.4984 12.4321 1.77199 10.9995C2.04558 9.56681 2.31917 8.13414 2.59088 6.69957C2.62861 6.51789 2.68145 6.39676 2.86258 6.36648C4.27394 6.15451 5.69284 6.00311 7.1042 6.35891C8.33442 6.66172 9.19482 7.5323 9.33822 8.55428C9.63257 10.5907 8.44763 12.2183 6.6891 12.8012C5.76077 13.104 4.81735 13.1797 3.85883 13.0889C3.63241 13.0662 3.56449 13.1267 3.52675 13.3463C3.32297 14.4591 3.11165 15.5643 2.89277 16.6696C2.87768 16.7604 2.79466 16.9043 2.74182 16.9043C2.22893 16.9156 1.72445 16.9142 1.2001 16.9128H1.20008H1.20006H1.20004H1.20002H1.2L1.19943 16.9128C1.02185 16.9123 0.841993 16.9118 0.658752 16.9118ZM4.33385 11.2949H4.33386C4.62908 11.3029 4.90786 11.3105 5.17967 11.2796C5.96459 11.1963 6.59102 10.8405 6.94575 10.0911C7.34576 9.24321 7.05896 8.34236 6.30422 8.0774C5.76836 7.88814 5.2174 7.92599 4.66644 8.00169C4.59852 8.00926 4.50795 8.11525 4.49286 8.18338C4.38731 8.73812 4.28176 9.29524 4.17225 9.87327L4.17216 9.87377L4.17213 9.87393C4.08591 10.329 3.99723 10.7971 3.90416 11.2872C4.05169 11.2872 4.19456 11.2911 4.33378 11.2949H4.3338H4.33382H4.33383H4.33385ZM14.0403 15.4586C13.9208 15.5832 13.809 15.7085 13.6997 15.831C13.4635 16.0956 13.2392 16.3469 12.9761 16.5487C12.1836 17.1619 11.2779 17.2982 10.3647 16.8742C9.45901 16.4579 9.08919 15.6479 9.05145 14.694C8.96843 12.6879 9.67034 11.03 11.3534 9.87933C12.41 9.15259 13.6252 8.93305 14.8856 9.00118C15.3025 9.02578 15.7162 9.09834 16.1309 9.17107C16.3543 9.21025 16.578 9.24948 16.8026 9.28128C17.0592 9.31913 17.0969 9.46297 17.0517 9.6825C16.9912 9.99835 16.9301 10.3139 16.8691 10.6292L16.869 10.6295L16.8689 10.6298L16.8688 10.6303L16.8687 10.6309L16.8686 10.6314C16.64 11.8117 16.412 12.9893 16.2215 14.1717C16.1122 14.8485 16.0686 15.5418 16.0255 16.2282C16.0179 16.3479 16.0104 16.4674 16.0026 16.5866C15.9875 16.8288 15.9271 16.9272 15.678 16.9197C15.2101 16.9045 14.7422 16.9045 14.2742 16.9197C14.0327 16.9272 13.9497 16.8364 13.9723 16.6017C13.9939 16.3424 14.0077 16.0753 14.0221 15.7978L14.0221 15.7978C14.0279 15.6864 14.0338 15.5735 14.0403 15.4586ZM14.5686 10.7803C13.8365 10.5759 13.2252 10.7197 12.7119 11.1512C11.7459 11.9688 11.3081 13.0286 11.3911 14.2929C11.4138 14.6789 11.5647 15.0499 11.9723 15.2164C12.3798 15.383 12.7497 15.2619 13.0667 14.9893C13.2553 14.8228 13.4365 14.6335 13.5723 14.4216C14.1047 13.6066 14.2501 12.6872 14.3978 11.7534C14.449 11.4295 14.5006 11.1039 14.5686 10.7803ZM25.2631 15.0194C25.6782 16.3518 26.8179 17.0937 28.8179 17.0937C30.1916 17.0558 31.5576 16.2761 32.4105 14.6712C32.8633 13.8082 33.0294 12.8846 32.969 11.9156C32.9162 10.9845 32.5463 10.1972 31.7916 9.63698C30.9991 9.0465 30.0934 8.92538 29.1274 9.03136C25.8971 9.39473 24.5763 12.8241 25.2631 15.0194ZM27.4125 13.9078V13.9077V13.9077V13.9077C27.4133 13.869 27.4142 13.8307 27.4142 13.7931C27.4368 12.9225 27.6481 12.1125 28.1689 11.3934C28.4029 11.0754 28.6972 10.8332 29.0897 10.7423C29.8897 10.5606 30.5463 11.0224 30.6218 11.893C30.7124 12.9604 30.4557 13.9445 29.784 14.8C29.5274 15.1179 29.2029 15.3375 28.7878 15.3753C28.0406 15.4434 27.4745 14.9362 27.4142 14.1414C27.4091 14.0654 27.4108 13.986 27.4125 13.9078ZM34.7653 9.19031H36.6824C36.6522 9.5991 36.622 9.99276 36.5843 10.394C36.654 10.3288 36.7215 10.2644 36.7877 10.2013L36.788 10.201L36.788 10.2009L36.7881 10.2009L36.7882 10.2008C36.9293 10.0661 37.0645 9.93711 37.2031 9.81864C37.9503 9.1676 38.8032 8.87993 39.7919 9.0389C40.607 9.17517 41.1731 9.77322 41.2636 10.6135C41.362 11.4879 41.1985 12.336 41.0354 13.1823L40.9995 13.3691C40.9337 13.7109 40.8686 14.0526 40.8036 14.3942L40.803 14.3971L40.8024 14.4005L40.8023 14.4007L40.8023 14.4008L40.8023 14.401C40.6589 15.1541 40.5158 15.9061 40.3655 16.6546C40.3428 16.753 40.2296 16.8968 40.1542 16.9044C39.5051 16.9195 38.856 16.912 38.2069 16.9044C38.1852 16.9044 38.1634 16.8926 38.1304 16.8747L38.11 16.8637C38.1058 16.8615 38.1014 16.8592 38.0969 16.8569C38.0934 16.8551 38.0899 16.8532 38.0862 16.8514C38.2069 16.2231 38.3277 15.5872 38.4409 14.9513C38.6145 13.9747 38.7805 13.0057 38.9315 12.0292C38.9617 11.8626 38.9466 11.6885 38.9239 11.5219C38.8636 10.939 38.4334 10.6741 37.8749 10.8482C37.3314 11.0223 37.0069 11.4462 36.7427 11.9156C36.3503 12.6045 36.2144 13.3691 36.0786 14.1337C36.0446 14.3231 36.0109 14.5122 35.9773 14.7011C35.8618 15.3499 35.7468 15.9962 35.6182 16.647C35.5956 16.7454 35.4823 16.8968 35.4069 16.9044C34.8777 16.9225 34.3436 16.9214 33.7743 16.9201H33.7742H33.7742H33.7742C33.629 16.9198 33.4816 16.9195 33.3313 16.9195C33.8295 14.3154 34.2974 11.7642 34.7653 9.19031ZM45.6485 15.3299C44.8485 15.2315 44.3127 14.6713 44.3655 13.884C44.5324 13.884 44.6984 13.8865 44.8636 13.8891C45.1915 13.8941 45.516 13.8991 45.8372 13.884C46.6146 13.8386 47.3769 13.7099 48.0863 13.3541C48.992 12.8999 49.4147 12.1504 49.3467 11.1738C49.2788 10.1821 48.743 9.46296 47.7844 9.17529C46.3504 8.74379 45.0297 9.0466 43.9051 10.008C42.539 11.1738 42.0258 12.7182 42.222 14.482C42.3579 15.7311 43.0372 16.6244 44.2749 16.9424C45.6033 17.283 46.909 17.1013 48.1694 16.5866C48.2599 16.5487 48.3656 16.4049 48.358 16.314C48.3399 15.9446 48.3025 15.5752 48.2651 15.2058C48.2557 15.1134 48.2463 15.0211 48.2373 14.9287C48.2125 14.9287 48.1941 14.9274 48.1799 14.9264C48.1596 14.925 48.1481 14.9242 48.1392 14.9287C48.0561 14.959 47.9731 14.9892 47.8977 15.0195C47.1731 15.2996 46.4259 15.4208 45.6485 15.3299ZM46.8183 11.9763C46.3579 12.2186 45.1655 12.3624 44.5843 12.2413C44.7051 11.2345 45.7692 10.4471 46.6674 10.6667C46.9693 10.7424 47.1881 10.9014 47.241 11.2269C47.2938 11.5448 47.1353 11.8098 46.8183 11.9763ZM51.9054 13.914C51.8374 14.6559 52.3658 15.2237 53.1733 15.3296C53.9281 15.4205 54.6526 15.3069 55.3621 15.0495C55.4275 15.025 55.4906 15.0004 55.56 14.9734L55.5605 14.9732C55.6191 14.9503 55.6821 14.9258 55.7545 14.8981C55.7693 15.0585 55.7857 15.2157 55.8018 15.3707L55.8018 15.3709C55.8352 15.6914 55.8676 16.0026 55.8828 16.3138C55.8904 16.4046 55.7847 16.5485 55.7017 16.5863C54.4186 17.1162 53.0979 17.2979 51.7469 16.927C50.5318 16.5939 49.8978 15.7082 49.7468 14.4969C49.5581 12.945 49.9582 11.5445 51.0374 10.3938C52.1997 9.15989 53.6262 8.72082 55.2715 9.17503C56.2753 9.45513 56.8112 10.1819 56.8715 11.2039C56.9319 12.2031 56.4791 12.9526 55.5357 13.3917C54.5847 13.8307 53.5733 13.8989 52.5469 13.9216C52.3431 13.914 52.1318 13.914 51.9054 13.914ZM52.1243 12.3017C52.2616 12.293 52.3964 12.2863 52.5294 12.2796C52.8641 12.2628 53.1867 12.2466 53.5054 12.2032C53.8073 12.1654 54.1092 12.0745 54.3809 11.9459C54.6753 11.8172 54.8187 11.5446 54.7734 11.2115C54.7281 10.8936 54.5168 10.7422 54.2224 10.6665C53.3319 10.4242 52.2224 11.2418 52.1243 12.3017ZM57.2866 15.3299C57.1885 15.8447 57.0979 16.3519 56.9998 16.9121C57.151 16.9121 57.3 16.9124 57.4473 16.9127C58.028 16.9139 58.5818 16.9151 59.1357 16.897C59.1885 16.897 59.2716 16.7531 59.2867 16.6623C59.3636 16.2842 59.435 15.9042 59.5064 15.5244C59.6379 14.8242 59.7694 14.1244 59.9357 13.4374C60.3056 11.9082 60.932 11.3782 62.4188 11.1814C62.4792 11.1739 62.5773 11.1057 62.5924 11.0527C62.6871 10.6176 62.772 10.1792 62.86 9.72438C62.9053 9.49076 62.9513 9.25281 63 9.00876C61.566 8.85736 60.7659 9.69008 60.0716 10.7121L60.0827 10.5643C60.1168 10.1123 60.1515 9.65233 60.1923 9.16774C60.0354 9.16774 59.8814 9.16725 59.7296 9.16677C59.2826 9.16536 58.8544 9.16401 58.4263 9.17531C58.3659 9.18288 58.2527 9.31914 58.2451 9.40241C58.0841 11.3481 57.7029 13.2511 57.3221 15.1528L57.2866 15.3299Z" fill="#98A2B3"/>
<path fill-rule="evenodd" clip-rule="evenodd" d="M37.304 0.0574869C37.2276 0.03726 37.1512 0.0170332 37.0748 0C36.8408 0 36.6069 0 36.3578 0.00757025C36.2727 0.0246355 36.1877 0.0432395 36.1019 0.0619947C35.9974 0.0848393 35.8919 0.107908 35.7842 0.128694C34.6294 0.348231 33.5426 0.749455 32.4935 1.27937C30.2218 2.43005 28.184 3.92139 26.3575 5.68526C25.1424 6.85108 23.965 8.06989 22.8254 9.31898C20.8253 11.5143 19.1121 13.9293 17.746 16.5788C17.0441 17.9491 16.4101 19.3496 16.1233 20.8712C16.0705 21.1513 16.1611 21.4768 16.2516 21.7569C16.2894 21.8704 16.5007 21.9537 16.6441 21.9991C16.6818 22.0143 16.795 21.825 16.8479 21.719C16.8666 21.678 16.8858 21.6359 16.9055 21.5929C17.2332 20.8749 17.6765 19.9039 18.061 19.261C18.8761 17.8984 19.5196 16.8438 20.4329 15.5493C21.897 13.4675 23.6079 11.4249 25.4041 9.62317C27.1023 7.91986 28.8029 6.39686 30.9388 5.24618C31.9199 4.72384 32.9237 4.20906 33.9502 3.78512C35.7238 3.05081 37.5729 2.55117 39.4748 2.27107C39.6786 2.24079 39.9503 2.08182 40.0183 1.91527C40.0786 1.76387 39.9352 1.4762 39.7918 1.33236C39.2107 0.734314 38.5314 0.280099 37.6861 0.143835C37.5588 0.124909 37.4314 0.0911981 37.304 0.0574869ZM20.0253 10.3863C20.3876 9.40213 20.5687 8.38015 20.5913 7.32032C20.5813 7.20676 20.5729 7.09321 20.5645 6.97965C20.5477 6.75254 20.531 6.52544 20.5008 6.29833C20.297 4.54203 19.5423 3.05069 18.3422 1.77132C18.1988 1.62749 18.0026 1.51393 17.8064 1.4458C17.6101 1.3701 17.4818 1.48365 17.4969 1.71076C17.4973 1.71556 17.4977 1.72036 17.498 1.72516C17.5128 1.91755 17.528 2.11678 17.5648 2.30881C17.6179 2.61132 17.6705 2.9142 17.7232 3.21728C17.9106 4.29458 18.0983 5.37446 18.3045 6.44974C18.5083 7.53228 18.7347 8.60726 18.9762 9.67466C19.0592 10.0153 19.1951 10.356 19.3611 10.6739C19.4894 10.9162 19.6706 10.8935 19.8366 10.6739C19.9121 10.5831 19.9875 10.4923 20.0253 10.3863Z" fill="#98A2B3"/>
</svg>
