<svg width="19" height="22" viewBox="0 0 19 22" fill="none" xmlns="http://www.w3.org/2000/svg">
<path fill-rule="evenodd" clip-rule="evenodd" d="M16.8801 5.604C16.8606 5.73414 16.8379 5.86713 16.8127 6.00378C15.9425 10.6215 12.9655 12.2168 9.16336 12.2168H7.22743C6.76242 12.2168 6.3705 12.5656 6.29819 13.0398L5.02629 21.3785C4.9792 21.6899 5.21131 21.9703 5.51515 21.9703H8.94878C9.35528 21.9703 9.70069 21.6651 9.76473 21.2506L9.79842 21.0704L10.4449 16.83L10.4865 16.5974C10.5497 16.1816 10.8959 15.8761 11.3024 15.8761H11.8159C15.1426 15.8761 17.7468 14.4802 18.508 10.4405C18.8258 8.75296 18.6613 7.34385 17.8199 6.35285C17.5654 6.05409 17.2495 5.80603 16.8801 5.604Z" fill="#98A2B3"/>
<path fill-rule="evenodd" clip-rule="evenodd" d="M15.9694 5.2288C15.8364 5.18868 15.6993 5.15243 15.5586 5.11964C15.4171 5.08767 15.2723 5.05936 15.1231 5.03451C14.6012 4.94735 14.0291 4.90601 13.4165 4.90601H8.24482C8.11734 4.90601 7.99636 4.93574 7.88818 4.98951C7.64956 5.10803 7.47242 5.34143 7.42947 5.62716L6.32919 12.8297L6.29767 13.0397C6.36998 12.5656 6.7619 12.2167 7.22691 12.2167H9.16284C12.9649 12.2167 15.942 10.6206 16.8121 6.00372C16.8382 5.86707 16.86 5.73408 16.8795 5.60394C16.6594 5.48317 16.421 5.37992 16.1643 5.29194C16.1008 5.27015 16.0354 5.24917 15.9694 5.2288Z" fill="#D0D5DD"/>
<path fill-rule="evenodd" clip-rule="evenodd" d="M7.42977 5.62728C7.47273 5.34155 7.64987 5.10815 7.88848 4.99044C7.99745 4.93647 8.11764 4.90674 8.24513 4.90674H13.4168C14.0294 4.90674 14.6015 4.94828 15.1234 5.03545C15.2726 5.06009 15.4174 5.0886 15.5589 5.12058C15.6996 5.15316 15.8367 5.18962 15.9697 5.22953C16.0357 5.2499 16.1011 5.27108 16.1652 5.29206C16.4219 5.38004 16.6605 5.48411 16.8806 5.60406C17.1395 3.89761 16.8785 2.73575 15.9859 1.68365C15.0016 0.525244 13.2255 0.029541 10.9527 0.029541H4.35417C3.88994 0.029541 3.49389 0.378407 3.42216 0.853337L0.673843 18.8593C0.619657 19.2155 0.885464 19.5369 1.23304 19.5369H5.30666L7.42977 5.62728Z" fill="#667085"/>
</svg>
