<svg width="26" height="38" viewBox="0 0 26 38" fill="none" xmlns="http://www.w3.org/2000/svg">
<path d="M22.7061 14.464H17.0319C16.9446 14.464 16.9446 14.464 16.9009 14.464C16.5518 14.4199 14.5876 14.2875 14.7185 16.6705C14.8495 19.2742 14.8931 27.3941 14.7185 28.718C14.544 29.9095 13.7583 18.0385 13.5837 15.7438C13.5837 15.5672 13.3655 15.4348 13.1909 15.479L11.4886 16.0527C11.4886 16.0527 10.1355 16.4057 10.7466 18.2592C11.1831 20.1568 13.0163 28.8062 13.0163 28.8062L9.39352 17.5531C9.30622 17.3324 9.04434 17.2001 8.8261 17.3324L8.04043 17.8179C8.04043 17.8179 6.8183 18.3474 7.8222 20.3333C8.82609 22.3191 11.5759 28.8062 13.0599 36.529C13.5401 38.2501 14.0638 38.2059 15.5479 37.6764C17.0319 37.1468 19.0833 36.6172 20.3491 35.9112C21.353 35.5581 22.0514 34.9844 22.7061 33.0427C23.3171 31.0569 26.6344 23.5106 25.8924 7.49145C25.8924 7.49145 25.9797 7.09429 25.194 6.5206C24.4083 5.94691 13.1036 0.254135 13.1036 0.254135C13.1036 0.254135 11.445 -0.716724 11.9251 1.13673C12.3616 2.99019 13.8019 9.56556 13.8019 9.56556C13.8019 9.56556 14.1948 12.1692 17.512 13.0518C20.8292 13.8903 22.7061 14.464 22.7061 14.464Z" fill="#2A93D5"/>
<path d="M0.53307 9.43316L4.94148 14.8612C5.11607 15.0818 5.29067 15.3025 5.42161 15.5231C5.63985 15.8761 6.16362 16.494 6.94928 16.3616C7.99683 16.1851 10.4847 15.7879 10.8776 15.6996C11.2704 15.6114 9.69909 15.6114 9.21897 15.2142C8.73884 14.8611 5.15972 9.12426 4.98513 8.72709C4.81054 8.37405 4.59231 8.06514 3.80665 8.02101C3.02099 7.97688 0.925897 8.02101 0.925897 8.02101C0.925897 8.02101 -0.863658 7.71209 0.53307 9.43316Z" fill="#2A93D5"/>
<path d="M5.59617 5.41734L9.30623 13.0518C9.30623 13.0518 9.78636 14.1992 11.1831 14.1992C12.5798 14.1992 15.6788 14.1992 15.6788 14.1992C15.6788 14.1992 14.6313 13.8462 14.0202 13.4931C13.4091 13.1401 13.0599 12.5664 12.798 11.9044C12.5362 11.2425 10.9212 5.54972 10.9212 5.54972C10.9212 5.54972 10.8776 4.88777 10.0482 4.66712C9.21894 4.44647 6.11995 4.00517 6.11995 4.00517C6.11995 4.00517 4.59227 3.34323 5.59617 5.41734Z" fill="#2A93D5"/>
</svg>
